PathFileType	4	(X/Y/Z)	/Users/itak/Documents/Research/Walk-IL/dataset/trc/00047_00004.trc
DataRate	CameraRate	NumFrames	NumMarkers	Units	OrigDataRate	OrigDataStartFrame	OrigNumFrames
100.000000	100.000000	4	53	mm	100.000000	384	512
Frame#	Time	RPSI			LPSI			L3			STRN			T10			C7			CLAV			RBAK			LBAK			LSHO			LUPA			LAEL			LAOL			LWTS			LWPS			LFRA			LIFD			LHPS			LHTS			RSHO			RUPA			RAEL			RAOL			RWTS			RWPS			RFRA			RIFD			RHTS			RHPS			RBHD			LFHD			RFHD			LBHD			LHIP			RHIP			RASI			LASI			LKNE			LTHI			LANK			LTIP			LTOE			LMT1			LMT5			LHEE			RKNE			RTHI			RANK			RTIP			RTOE			RMT1			RMT5			RHEE			
		X1	Y1	Z1	X2	Y2	Z2	X3	Y3	Z3	X4	Y4	Z4	X5	Y5	Z5	X6	Y6	Z6	X7	Y7	Z7	X8	Y8	Z8	X9	Y9	Z9	X10	Y10	Z10	X11	Y11	Z11	X12	Y12	Z12	X13	Y13	Z13	X14	Y14	Z14	X15	Y15	Z15	X16	Y16	Z16	X17	Y17	Z17	X18	Y18	Z18	X19	Y19	Z19	X20	Y20	Z20	X21	Y21	Z21	X22	Y22	Z22	X23	Y23	Z23	X24	Y24	Z24	X25	Y25	Z25	X26	Y26	Z26	X27	Y27	Z27	X28	Y28	Z28	X29	Y29	Z29	X30	Y30	Z30	X31	Y31	Z31	X32	Y32	Z32	X33	Y33	Z33	X34	Y34	Z34	X35	Y35	Z35	X36	Y36	Z36	X37	Y37	Z37	X38	Y38	Z38	X39	Y39	Z39	X40	Y40	Z40	X41	Y41	Z41	X42	Y42	Z42	X43	Y43	Z43	X44	Y44	Z44	X45	Y45	Z45	X46	Y46	Z46	X47	Y47	Z47	X48	Y48	Z48	X49	Y49	Z49	X50	Y50	Z50	X51	Y51	Z51	X52	Y52	Z52	X53	Y53	Z53	

385	3.84	19.63562202453613	1070.663940429688	924.70263671875	169.6742858886719	1063.72314453125	859.68994140625	100.7927017211914	1126.077880859375	883.204833984375	171.224609375	1320.122802734375	1096.703002929688	98.506103515625	1268.135864257812	856.94091796875	126.5406494140625	1536.709106445312	898.2211303710938	162.3666534423828	1445.746826171875	1054.025512695312	34.08831024169922	1398.670166015625	872.1072387695312	215.5650634765625	1495.409545898438	855.273193359375	313.1088562011719	1502.906372070312	935.0368041992188	379.109130859375	1377.8583984375	884.5723876953125	405.3227844238281	1161.454467773438	872.836669921875	302.9303283691406	1147.012329101562	847.8845825195312	386.8702087402344	913.1777954101562	983.0971069335938	401.8346252441406	894.8854370117188	897.3284301757812	417.6690979003906	1046.130493164062	885.8599243164062	379.3894348144531	730.7379760742188	1022.598876953125	413.4882507324219	807.3240966796875	933.7405395507812	406.6404724121094	820.8785400390625	1003.472473144531	-22.21010971069336	1522.10205078125	1019.686645507812	-95.53157806396484	1454.490844726562	1024.6376953125	-144.4658508300781	1190.588256835938	997.7495727539062	-53.04522705078125	1156.98876953125	976.6296997070312	-81.48241424560547	949.404541015625	1148.936889648438	-161.0833129882812	926.0903930664062	1107.073974609375	-158.2984008789062	1114.331909179688	1021.623718261719	-55.22653198242188	770.9677734375	1191.780639648438	-82.61133575439453	848.395263671875	1202.036376953125	-146.4758605957031	834.2223510742188	1163.958740234375	207.7869262695312	1727.896362304688	963.6373901367188	72.77072143554688	1719.03271484375	1134.657104492188	170.0545654296875	1727.449951171875	1141.051513671875	64.50514221191406	1712.60205078125	960.1163940429688	309.8271789550781	960.42578125	909.723876953125	-29.88847541809082	955.2553100585938	1067.451293945312	76.14689636230469	991.5399780273438	1135.862548828125	289.9781188964844	1008.161193847656	1041.605834960938	322.0075378417969	518.9252319335938	1058.807250976562	333.6260070800781	656.1837158203125	995.755859375	228.8324432373047	136.5604858398438	727.8453979492188	287.1085510253906	336.1219177246094	873.4212036132812	240.7188720703125	49.01154708862305	933.0623168945312	206.1244659423828	76.3875732421875	891.4085083007812	288.3013000488281	85.719482421875	824.225341796875	159.4364471435547	170.0362548828125	690.0695190429688	47.20190811157227	527.3285522460938	1112.817138671875	-14.43777751922607	791.8683471679688	1102.986938476562	87.29960632324219	41.36582183837891	1046.620727539062	51.95137405395508	400.7073669433594	1103.635864257812	167.080078125	44.09975051879883	1267.109619140625	185.6439208984375	48.79004669189453	1200.427734375	88.33067321777344	42.18010330200195	1196.686889648438	122.0994567871094	42.31446838378906	985.2127685546875	
386	3.85	20.9208869934082	1071.383178710938	928.4461059570312	171.1510314941406	1064.549560546875	863.8052368164062	102.0552368164062	1126.802734375	887.280517578125	172.3269195556641	1320.600952148438	1101.261108398438	99.67964172363281	1268.847290039062	861.4404296875	128.0040130615234	1537.35400390625	902.8507690429688	163.7143707275391	1446.2802734375	1058.667114257812	35.38544464111328	1399.47412109375	876.6671142578125	216.9528961181641	1495.95703125	859.9213256835938	314.511474609375	1503.303833007812	939.6951293945312	380.4250793457031	1378.20703125	889.212158203125	406.4950866699219	1161.762451171875	877.5267333984375	304.1319885253906	1147.401123046875	852.40966796875	387.6529235839844	913.8535766601562	988.4216918945312	402.7625427246094	895.27099609375	902.747314453125	418.7386169433594	1046.466796875	890.8361206054688	379.9586486816406	731.5701293945312	1028.551879882812	414.3157043457031	807.813232421875	939.49755859375	407.2579650878906	821.610107421875	1009.168151855469	-20.78721237182617	1522.949829101562	1024.265869140625	-94.14572906494141	1455.428466796875	1029.27978515625	-143.4343109130859	1191.498168945312	1002.668212890625	-52.09997177124023	1157.811401367188	981.4781494140625	-79.94342041015625	950.9972534179688	1154.725952148438	-159.6106567382812	927.417724609375	1113.198608398438	-157.2469024658203	1115.256469726562	1026.803344726562	-53.37824249267578	772.8216552734375	1198.415893554688	-80.88299560546875	850.2232055664062	1208.38818359375	-144.7584533691406	835.898193359375	1170.537963867188	209.5136566162109	1728.424682617188	968.17041015625	74.36356353759766	1719.83203125	1139.098388671875	171.6967163085938	1728.126098632812	1145.553344726562	66.24239349365234	1713.311401367188	964.5753784179688	311.3944396972656	961.2583618164062	914.4379272460938	-29.1906852722168	955.547607421875	1070.570556640625	76.65554046630859	991.7173461914062	1139.598754882812	290.8785400390625	1008.921752929688	1046.0732421875	321.3748474121094	521.010986328125	1067.925415039062	334.2232666015625	657.3203735351562	1003.557800292969	236.5405731201172	128.4147186279297	747.4157104492188	290.6852416992188	333.0876770019531	887.1822509765625	245.7217559814453	48.83896255493164	956.1502685546875	211.6301422119141	74.30176544189453	912.8743896484375	294.7255859375	81.82621002197266	846.6206665039062	167.2965393066406	159.7483367919922	707.2118530273438	47.3410530090332	527.1758422851562	1113.603759765625	-13.6113920211792	791.90869140625	1105.234008789062	87.23619842529297	41.42141342163086	1046.577514648438	52.01892471313477	400.7030029296875	1104.046752929688	167.0604858398438	44.08339691162109	1267.120483398438	185.6324615478516	48.78901290893555	1200.438720703125	88.29554748535156	42.17934799194336	1196.68505859375	122.1524200439453	42.29426956176758	985.2128295898438	
387	3.86	22.20686721801758	1072.076782226562	932.0929565429688	172.6428070068359	1065.358276367188	867.8409423828125	103.3211059570312	1127.505493164062	891.2542724609375	173.4462432861328	1321.03125	1105.721557617188	100.8604888916016	1269.535766601562	865.855224609375	129.4595642089844	1537.97412109375	907.4121704101562	165.0650482177734	1446.772705078125	1063.229736328125	36.65155410766602	1400.250366210938	881.13818359375	218.3229064941406	1496.477661132812	864.4908447265625	315.9045104980469	1503.664306640625	944.266845703125	381.7219848632812	1378.514404296875	893.7561645507812	407.6661376953125	1162.03759765625	882.1237182617188	305.3247680664062	1147.742919921875	856.8554077148438	388.4661254882812	914.5137939453125	993.6824340820312	403.7026672363281	895.6284790039062	908.1036376953125	419.7961730957031	1046.767944335938	895.7249145507812	380.5796508789062	732.394287109375	1034.470092773438	415.1808471679688	808.2849731445312	945.195068359375	407.9316711425781	822.3348388671875	1014.802185058594	-19.36826705932617	1523.74462890625	1028.800415039062	-92.76239013671875	1456.323120117188	1033.86279296875	-142.4272155761719	1192.3623046875	1007.447937011719	-51.17509460449219	1158.603637695312	986.146728515625	-78.39705657958984	952.4821166992188	1160.258911132812	-158.1462707519531	928.6708374023438	1119.064819335938	-156.2201538085938	1116.136596679688	1031.810546875	-51.54591369628906	774.5428466796875	1204.700317382812	-79.15322113037109	851.925537109375	1214.42236328125	-143.0798034667969	837.4276733398438	1176.753051757812	211.2601928710938	1728.884887695312	972.575927734375	75.98652648925781	1720.650390625	1143.438598632812	173.3652954101562	1728.814697265625	1149.932373046875	67.98634338378906	1713.9736328125	968.93603515625	312.98046875	962.0910034179688	919.0531616210938	-28.47039604187012	955.8150634765625	1073.618286132812	77.20144653320312	991.8550415039062	1143.218994140625	291.8160705566406	1009.65380859375	1050.444702148438	320.6637878417969	523.090576171875	1076.577758789062	334.749755859375	658.439453125	1010.987854003906	244.2631378173828	120.3469848632812	767.4735107421875	294.2414855957031	330.0452575683594	900.946044921875	250.4029846191406	48.82184219360352	979.3424682617188	216.8605194091797	72.28353118896484	934.4869995117188	300.9703979492188	78.10405731201172	869.3410034179688	175.2929840087891	149.4613494873047	724.8551635742188	47.54445648193359	527.0448608398438	1114.345336914062	-12.65480041503906	791.9513549804688	1107.415283203125	87.14226531982422	41.49753952026367	1046.5224609375	52.13331985473633	400.7062377929688	1104.435546875	167.0394744873047	44.06401824951172	1267.136474609375	185.6223754882812	48.78755569458008	1200.4501953125	88.26316833496094	42.17590713500977	1196.684814453125	122.2130966186523	42.27436447143555	985.2144775390625	
388	3.87	23.49187469482422	1072.740844726562	935.6401977539062	174.1533355712891	1066.140014648438	871.8048095703125	104.5958938598633	1128.18408203125	895.1292724609375	174.5726776123047	1321.417724609375	1110.083984375	102.0529937744141	1270.202026367188	870.172607421875	130.9070434570312	1538.56982421875	911.9024658203125	166.4158020019531	1447.227416992188	1067.710815429688	37.89643859863281	1400.999145507812	885.5174560546875	219.6855926513672	1496.974487304688	868.9845581054688	317.2949523925781	1503.994018554688	948.7577514648438	383.0058288574219	1378.7861328125	898.2144165039062	408.8344421386719	1162.285522460938	886.641357421875	306.5036315917969	1148.0400390625	861.2454833984375	389.3091125488281	915.151123046875	998.876708984375	404.6453552246094	895.9584350585938	913.3905639648438	420.841064453125	1047.037109375	900.5327758789062	381.2604675292969	733.1998291015625	1040.334716796875	416.0796508789062	808.7408447265625	950.8179931640625	408.6694641113281	823.0455932617188	1020.359985351562	-17.94939231872559	1524.485961914062	1033.283813476562	-91.38568878173828	1457.170654296875	1038.375	-141.4345855712891	1193.181518554688	1012.091735839844	-50.26092910766602	1159.36474609375	990.6448974609375	-76.85347747802734	953.8525390625	1165.529663085938	-156.6911926269531	929.8419799804688	1124.6689453125	-155.209228515625	1116.970703125	1036.649047851562	-49.74113082885742	776.125732421875	1210.626953125	-77.42849731445312	853.5026245117188	1220.12841796875	-141.4415130615234	838.8004150390625	1182.6015625	213.0189666748047	1729.283813476562	976.8603515625	77.64012908935547	1721.476806640625	1147.68603515625	175.0563354492188	1729.507202148438	1154.197143554688	69.72593688964844	1714.591552734375	973.2034301757812	314.5834655761719	962.9151000976562	923.5796508789062	-27.75562286376953	956.0570068359375	1076.58251953125	77.78446197509766	991.9656372070312	1146.726440429688	292.7838134765625	1010.35546875	1054.733032226562	319.9123840332031	525.1456909179688	1084.759399414062	335.2323608398438	659.5308227539062	1018.035949707031	251.9341888427734	112.4423217773438	787.9705810546875	297.7891540527344	327.0383605957031	914.6978759765625	254.6038513183594	49.0239372253418	1002.554077148438	221.6929168701172	70.42143249511719	956.1627807617188	306.922119140625	74.61286163330078	892.3453979492188	183.4285125732422	139.3023376464844	742.9366455078125	47.813232421875	526.9437866210938	1115.056030273438	-11.5657434463501	791.9970703125	1109.544799804688	87.02895355224609	41.58981704711914	1046.4619140625	52.29864883422852	400.7138366699219	1104.821655273438	167.0187683105469	44.0397834777832	1267.159057617188	185.6147003173828	48.78387069702148	1200.461669921875	88.23350524902344	42.16920852661133	1196.685180664062	122.2730941772461	42.26317596435547	985.216552734375	
